Patient4_TMGait_0pt3_03_left_08_EMG.mot
version=1
nRows=36
nColumns=33
inDegrees=no
endheader
time	1LAddLong	2LGlutMax	3LGlutMed	4LIliopsoas	5LSemiMemb	6LBicFemLong	7LRecFem	8LVastMed	9LVastLat	10LGasMed	11LTibAnt	12lTibPost	13LPeroneusLong	14LSol	15LExtDigLong	16LFlexDigLong	17RAddLong	18RGlutMax	19RGlutMed	20RIliopsoas	21RSemiMemb	22RBicFemLong	23RRecFem	24RVastMed	25RVastLat	26RGasMed	27RTibAnt	28RTibPost	29RPeroneusLong	30RSol	31RExtDigLong	32RFlexDigLong
16.143	0.003052	0.068817	0.005798	-0.000458	-0.012512	0.026245	-0.023499	0.010223	-0.033722	-0.018005	0.027313	-0.010223	0.006866	-0.064697	0.12283	0.005646	0.002747	0.44266	0.072479	-0.16739	-0.047455	-0.044403	0.41489	-0.26321	0.15182	0.065002	-0.06485	-0.02182	0.26413	0.168	0.000458	0.000305
16.144	0.006256	0.052032	0.025177	0.023041	-0.002136	0.00824	-0.040283	0.001984	-0.028534	-0.028534	0.010529	-0.0177	0.010223	-0.037994	-0.21179	0.00824	0.005188	0.45075	-0.38208	-0.11597	-0.002136	-0.12268	0.27268	-0.2066	-0.68146	0.037994	0.00885	-0.028229	-0.21393	0.099487	0.001068	-0.00946
16.145	0.01358	0.034943	0.031433	0.019989	-0.007019	-0.02243	-0.021973	-0.001526	-0.039063	-0.043182	0.010986	-0.006561	0.022736	-0.042114	-0.1564	0.011444	-0.002289	0.37277	-0.33402	-0.12314	0.000305	-0.12238	0.043488	0.058899	-0.58334	0.007324	0.04364	-0.007477	-0.6134	-0.35416	0.002594	-0.007935
16.146	0.048065	0.024872	0.014038	0.022583	-0.00885	-0.00351	-0.031433	0.006104	-0.039368	-0.016022	0.04425	-0.004425	-0.004425	-0.041199	-0.12878	0.003662	0.003204	0.16464	-0.29159	-0.12421	-0.049438	-0.061035	-0.21072	0.054016	-0.46982	-0.053558	0.07309	-0.051422	-0.53253	-0.55817	-0.000458	-0.009613
16.147	-0.019073	0.031128	0.032959	0.015717	-0.001831	-0.002899	-0.032806	-0.00351	-0.040894	0.016022	0.19714	-0.008392	-0.041199	-0.050507	0.16312	-0.001373	0.003662	0.050812	-0.30548	-0.1416	-0.062256	0.030823	-0.15717	0.33569	-0.36743	-0.065308	0.053558	-0.058594	0.11902	-0.5072	0	-0.015259
16.148	-0.006409	0.022278	0.044098	0.008545	-0.00824	0.000916	-0.028534	-0.002899	-0.041962	0.011749	0.30075	-0.007172	-0.036774	-0.050507	0.14343	0.01358	0.004883	-0.01358	-0.26001	-0.046844	0.009613	0.11749	-0.23575	0.62363	-0.058746	-0.039825	0.065765	-0.14893	0.030975	0.11826	0.001373	-0.012512
16.149	0.008087	0.028229	0.01297	0.013123	-0.003662	0.018158	-0.041809	0.00061	-0.040741	-0.014801	-0.087433	-0.007172	0.014801	-0.014648	0.37735	0.008392	0.023499	0.032043	-0.5896	0.10376	0.085754	0.051117	0.13626	0.50995	-0.089417	-0.005341	-0.063629	-0.10544	0.58166	0.39902	-0.000458	-0.01236
16.15	0.007172	0.026093	0.010986	0.000153	-0.00473	0.035553	-0.018005	0.003204	-0.037842	-0.012207	-0.20676	-0.006104	0.036011	0.014801	0.47821	-0.007935	0.041504	0.07843	-0.44586	0.24109	0.10086	0.013733	0.38284	0.32608	-0.1297	-0.005035	-0.066833	-0.037994	1.5607	0.11719	0.001068	-0.014954
16.151	0.007172	0.028381	0.00351	0.005188	-0.006714	0.020905	-0.027313	0.007782	-0.050354	-0.011444	-0.088501	-0.007019	0.044861	0.014038	0.1355	-0.008087	0.015259	-0.034637	-0.18402	0.26794	0.075378	0.042419	0.082245	0.19608	-0.215	-0.024567	0.065765	0.2301	1.0907	0.23117	0.001526	-0.011444
16.152	0.001831	0.022888	0.009155	0.027008	-0.006561	0.018311	-0.028534	0.009766	-0.03891	-0.023499	0.007324	-0.013733	0.049133	0.002899	-0.093231	0	-0.0177	-0.002136	-0.019379	0.1413	0.051422	0.018158	-0.18799	0.11963	-0.36209	-0.009003	0.13702	0.15518	-0.79346	0.35538	0.006104	-0.013885
16.153	0.006714	0.006256	-0.045166	0.028076	-0.011444	0.011597	-0.050201	0.008545	-0.040741	-0.022125	-0.044708	-0.00946	0.050507	-0.023804	-0.29404	-0.012665	-0.005035	0.061646	0.16678	0.028381	-0.029297	-0.079346	0.13229	0.09491	-0.34256	-0.002441	0.050049	0.060425	-1.5111	0.037689	-0.00061	-0.004425
16.154	0.004425	0.006104	-0.080414	0.024261	-0.015869	-0.005493	-0.027618	0.00885	-0.036621	-0.026703	-0.001221	-0.006409	0.02533	-0.03006	-0.24857	-0.007935	-0.014801	0.18372	-0.057068	-0.03067	-0.12482	-0.11948	0.25909	0.003815	-0.28122	-0.015869	-0.090942	0.017548	-0.46936	-0.36072	0.002594	-0.007935
16.155	0.009155	0.020752	-0.067902	0.032043	-0.012207	-0.004578	-0.03891	0.005035	-0.029755	-0.022888	0.018616	-0.017242	-0.009613	0	-0.11353	-0.01358	0.025635	0.19745	0.005798	0.000458	-0.16647	-0.08606	0.28091	0.004578	-0.18768	-0.016174	-0.029297	-0.005951	-0.16907	-0.044708	0.001984	-0.007629
16.156	0.006714	0.026245	-0.048676	0.047455	-0.008392	0.002594	-0.031281	0.010223	-0.023651	-0.006104	-0.023346	-0.009155	-0.018311	-0.038605	-0.13046	0.00885	0.056915	0.19486	-0.11658	0.065308	-0.077209	-0.082703	0.25803	0.024719	-0.20371	-0.013428	-0.032501	-0.021057	0.21683	0.32257	0.002289	-0.003662
16.157	0.007324	0.027008	0.014038	0.012054	-0.006256	0.000305	-0.033264	0.003204	-0.019226	-0.000305	-0.10025	-0.005035	0.011139	-0.082397	-0.14191	0.003204	0.061798	0.26733	-0.41382	0.073547	0.10208	-0.03891	0.26596	0.031433	-0.16464	-0.009003	-0.036926	-0.020905	-0.086365	0.2063	0.000305	-0.007935
16.158	0.012512	0.025177	0.020905	0.008545	-0.004578	-0.016937	-0.042267	0.00885	-0.019836	-0.014038	-0.0383	-0.00885	-0.000916	-0.10101	-0.035095	0.002289	0.007172	0.31189	-0.59311	0.093231	0.1651	0.011749	0.19424	0.02121	-0.071716	-0.010223	-0.006104	0.006561	-0.43289	0.10834	0.001526	0.003204
16.159	0.002747	-0.006256	0.055237	-0.018463	-0.007629	-0.010834	-0.017395	0.005798	-0.026855	-0.009308	-0.041199	-0.007019	0.006561	-0.086212	-0.042114	0.010986	-0.010681	0.41061	0.62302	0.071106	-0.12482	-0.000916	0.005646	-0.16861	0.0354	-0.015106	0.001831	0.02655	-0.29129	0.21515	0.000763	-0.001526
16.16	0.000916	0.021057	0.077209	0.001526	-0.00824	-0.00885	-0.031891	0.001526	-0.024719	-0.019073	-0.016022	-0.010223	0.001221	0.010834	0.067139	0.023346	-0.015106	0.4303	0.56488	0.011749	-0.00473	0.028229	-0.11932	0.4361	0.18585	-0.011139	-0.010223	-0.10773	0.73715	0.11185	0.001068	-0.014648
16.161	0.010223	-0.007019	0.041504	0.005341	-0.007324	-0.003815	-0.043945	0.007019	-0.026855	-0.007172	0.036774	-0.009918	-0.004425	0.052338	0.16586	0.007019	-0.040741	0.3421	-0.003052	0.030518	0.044403	0.034637	-0.45746	0.37872	0.43518	-0.005798	-0.025787	-0.35416	0.72449	0.067291	0.002136	-0.012817
16.162	0.008698	0.019073	0.027008	0.013428	-0.006256	-0.006256	-0.037994	0.00351	-0.024261	-0.020142	0.015564	-0.015106	0.003967	0.002594	0.019226	-0.004883	-0.029144	0.34759	0.16998	-0.10529	0.11292	-0.002747	-0.18951	-0.21103	0.41443	0	-0.032654	0.18219	0.1445	-0.00412	-0.005951	-0.014648
16.163	0.007172	-0.034637	0.034943	0.021667	-0.004272	-0.00473	-0.014038	0.003052	-0.026245	-0.009003	-0.014191	-0.001373	0.006104	-0.009155	0.065002	0.010529	-0.019531	0.22507	0.36911	-0.1004	0.032349	-0.027161	0.001068	-0.68451	0.18601	-0.015106	-0.016785	0.097504	-0.51636	0.005798	-0.000916	-0.011902
16.164	0.009003	0.002899	0.001831	0.011292	-0.006409	0.015106	-0.012512	0.003052	-0.034943	-0.01236	-0.014343	-0.005341	0.027313	-0.007324	0.009003	0.00885	-0.033569	0.20676	0.17242	-0.03952	0.006714	-0.029297	-0.12619	-0.98801	0.05127	-0.009003	0.028992	0.042572	-0.43747	0.046844	-0.000763	-0.010834
16.165	0.002747	-0.015869	0.001678	0.013275	-0.006714	0.041809	-0.01236	0.001831	-0.036926	-0.011597	-0.004272	0.001373	0.030212	-0.006866	0.031281	0.008392	-0.019989	0.25894	0.21973	0.066986	-0.0177	-0.051575	-0.33707	-1.328	0.0354	-0.005035	0.027618	0.009766	-0.19623	-0.019073	-0.001678	-0.014038
16.166	0.003357	-0.024872	-0.005798	0.016785	-0.007782	0.03418	-0.016632	0.006561	-0.043945	-0.010834	-0.007324	-0.005951	0.004883	-0.002289	0.061646	0.007782	0.00885	0.24368	0.049286	0.092316	-0.062714	-0.075226	-0.72357	-1.0281	0.25986	-0.007782	-0.004578	-0.11322	-0.11505	0.000153	0.004425	-0.012054
16.167	0.009918	-0.028534	0.01297	0.001984	-0.006561	0.03891	-0.003967	0.001068	-0.041809	-0.015869	0.06424	0.003662	-0.016022	-0.006104	0.14023	-0.001526	0.027924	0.31311	0.26916	-0.016022	0.015106	-0.0354	-0.72937	-0.23483	0.30304	-0.009308	0.018005	0.007019	-0.12512	-0.028992	0.001373	-0.019989
16.168	0.005493	-0.039368	-0.005798	0	-0.009766	0.023499	-0.014496	0.006866	-0.047607	-0.018921	0.054474	0.001373	-0.010834	-0.003967	0.11688	0.005646	0.029449	0.26749	-0.12222	-0.16388	0.16281	-0.01709	-0.289	1.2238	0.19287	-0.000153	0.045776	-0.020294	-0.41397	-0.070953	0.000153	-0.014343
16.169	0.00351	-0.025482	-0.011292	-0.001221	-0.011139	0.021515	0.011902	0.000305	-0.052795	-0.027924	-0.014496	-0.001984	-0.000153	-0.01236	0.030975	-0.002594	0.009766	0.1796	0.075378	-0.1799	0.11902	0.005035	0.044556	1.8674	0.14893	0	0.025024	-0.020905	-0.12192	-0.057678	0.000153	-0.013275
16.17	0.007324	-0.030365	-0.015869	-0.009308	-0.018311	0.02121	-0.019073	0.009003	-0.061188	-0.0177	-0.020447	-0.001526	0.001984	-0.010071	-0.014648	0.00824	0.006714	0.072327	-0.2214	-0.076599	-0.018768	0.01236	0.16342	1.5176	0.16373	-0.006104	0.038147	-0.008698	1.1002	-0.076447	-0.001831	-0.019531
16.171	0.004578	-0.034943	-0.005493	0.004425	-0.005493	0.012665	-0.033112	0.012665	-0.05722	-0.016327	-0.009155	-0.007935	0.004578	-0.031433	0.02182	0.014343	0.014343	0.029907	-0.60394	-0.067139	-0.21484	0.090485	0.45914	1.0306	0.32928	-0.004883	0.057983	-0.013733	1.2839	-0.10498	0.001526	-0.004578
16.172	0.007782	-0.050964	-0.005646	0.00824	-0.012207	0.000458	-0.014648	0.011139	-0.048981	-0.022888	0.014191	-0.007172	0.00412	-0.027924	0.011749	0.005798	0.026855	0.096436	-0.793	-0.090942	-0.070648	0.085754	0.61905	0.31372	0.21362	-0.007019	0.049438	-0.010529	-0.30899	-0.049286	-0.001373	0.000763
16.173	0.008087	-0.009766	0.000153	0.024261	-0.010223	0.011749	-0.019836	0.002747	-0.045471	-0.02182	-0.012207	-0.004578	-0.008545	-0.022583	0.069122	0.008392	0.011444	0.098724	-0.15488	-0.007782	0.024872	-0.000763	0.56397	-0.57938	-0.13001	0.004425	-0.087585	-0.012207	-1.2735	-0.074463	0.000305	0.001068
16.174	0.000458	-0.037537	-0.018158	0.000458	-0.006104	0.005035	-0.032196	-0.008545	-0.046387	-0.014648	-0.043488	0.004883	-0.00473	-0.007324	0.019836	0.005035	-0.025635	-0.014954	0.44266	0.22903	0.017548	-0.063477	0.38895	-0.89752	-0.51041	-0.002136	-0.019379	-0.010223	-0.88592	-0.047913	0.000153	-0.016174
16.175	0.011292	-0.041656	-0.031738	-0.00351	-0.00885	0.002289	-0.027313	-0.001678	-0.050354	-0.013123	-0.055237	-0.000153	-0.000763	-0.020294	-0.056	0.012665	-0.025787	-0.012665	-0.36453	0.23377	0.038757	-0.11383	0.078888	-0.87647	-0.56015	-0.013885	-0.076447	-0.005646	0.41031	-0.17136	0.000916	-0.015259
16.176	0.005798	-0.00824	-0.009613	0.002899	-0.00351	-0.017395	-0.012817	-0.009003	-0.05722	-0.02655	-0.088959	-0.005798	0.020447	-0.036774	-0.07843	0.003357	0.008392	-0.071411	-0.27191	0.065308	0.11398	-0.14465	-0.11398	-1.0068	-0.40268	-0.010529	-0.03479	-0.016785	1.1851	-0.14908	-0.000916	-0.017395
16.177	0.002594	-0.049744	0.001068	0.0177	-0.005035	0.01358	-0.010681	0.002441	-0.056763	-0.019836	-0.016785	-0.006561	0.019226	-0.015869	-0.040741	0.016937	0.060272	-0.060577	0.7843	0.053864	0.28717	-0.13534	-0.1387	-0.68771	-0.22507	-0.015717	0.018158	-0.005341	0.45319	-0.2124	0.000305	-0.013275
16.178	0.003357	-0.040741	-0.000153	0.009155	-0.009766	0.014343	-0.028839	0.002899	-0.055847	-0.011292	0.14282	-0.005341	-0.010071	-0.025635	0.003815	-0.010681	0.099792	0.012207	0.88089	-0.018921	0.34943	-0.089111	-0.2182	-0.5484	-0.096893	-0.013733	0.049591	-0.005646	-0.7547	0.064087	-0.003357	-0.005035
